<?xml version="1.0" standalone="no"?>
<!DOCTYPE svg PUBLIC "-//W3C//DTD SVG 20010904//EN"
 "http://www.w3.org/TR/2001/REC-SVG-20010904/DTD/svg10.dtd">
<svg version="1.0" xmlns="http://www.w3.org/2000/svg"
 width="1000.000000pt" height="1000.000000pt" viewBox="0 0 1000.000000 1000.000000"
 preserveAspectRatio="xMidYMid meet">

<g transform="translate(0.000000,1000.000000) scale(0.100000,-0.100000)"
fill="#000000" stroke="none">
<path d="M1378 5655 c-19 -13 -41 -39 -47 -56 -29 -82 1 -203 56 -228 16 -8
75 -12 151 -12 148 0 182 12 207 73 19 49 19 141 0 179 -30 57 -65 69 -205 69
-117 0 -128 -2 -162 -25z"/>
<path d="M2083 5657 c-63 -26 -125 -83 -156 -140 -22 -42 -22 -42 -25 -624
l-3 -583 225 0 225 0 3 511 3 511 33 29 32 29 181 0 181 0 34 -34 34 -34 0
-506 0 -506 225 0 226 0 -3 588 -3 587 -34 53 c-18 29 -54 67 -79 84 -83 57
-93 58 -591 58 -447 -1 -457 -1 -508 -23z"/>
<path d="M3655 5671 c-48 -12 -92 -39 -139 -84 -77 -73 -76 -69 -76 -714 l0
-563 220 0 220 0 1 483 c0 265 3 493 5 507 6 31 40 68 77 83 19 8 81 10 198 7
l169 -5 27 -30 28 -30 3 -507 3 -508 225 0 225 0 -3 578 -3 577 -28 55 c-17
32 -48 71 -75 93 -82 66 -92 67 -596 66 -248 -1 -464 -4 -481 -8z"/>
<path d="M5172 5663 c-66 -20 -142 -85 -174 -151 l-23 -47 0 -465 c0 -540 -2
-525 92 -609 92 -82 98 -83 638 -79 455 3 460 3 502 26 66 35 114 82 139 137
l24 50 0 469 0 469 -25 52 c-27 57 -72 102 -138 137 -42 23 -45 23 -512 25
-404 2 -477 0 -523 -14z m724 -316 c32 -39 36 -78 32 -387 -3 -304 -6 -317
-65 -345 -47 -23 -340 -22 -384 1 -57 29 -59 44 -59 374 0 325 4 354 54 383
28 16 330 26 370 12 15 -5 39 -22 52 -38z"/>
<path d="M6510 5106 l1 -574 28 -59 c32 -66 66 -99 138 -134 41 -21 66 -24
177 -27 75 -3 145 0 165 7 20 5 38 10 41 9 17 -5 100 73 137 128 24 36 43 68
43 71 0 3 8 17 19 31 10 15 27 43 38 62 15 29 54 94 128 218 65 108 115 195
115 198 0 2 17 30 37 61 21 32 43 68 50 81 30 53 41 71 86 147 59 100 68 114
88 145 9 14 28 45 41 70 14 25 38 66 53 93 l27 47 -178 -2 c-167 -3 -179 -4
-189 -23 -9 -18 -108 -185 -160 -270 -11 -18 -53 -88 -93 -156 -40 -68 -78
-133 -85 -143 -54 -87 -77 -126 -77 -130 0 -3 -16 -30 -35 -60 -19 -30 -35
-58 -35 -61 0 -3 -17 -32 -37 -63 -21 -31 -45 -70 -53 -86 -14 -26 -15 21 -18
482 l-2 512 -225 0 -225 0 0 -574z"/>
<path d="M8144 5664 c-57 -21 -117 -74 -156 -140 -18 -31 -43 -73 -56 -93 -12
-20 -25 -43 -29 -51 -4 -8 -22 -38 -40 -67 -18 -29 -33 -54 -33 -57 0 -3 -20
-38 -45 -76 -25 -39 -53 -85 -63 -103 -15 -26 -55 -95 -127 -215 -65 -108
-115 -195 -115 -198 0 -2 -17 -30 -37 -61 -21 -32 -43 -67 -49 -78 -32 -59
-57 -101 -64 -110 -4 -5 -19 -31 -33 -57 l-27 -48 178 0 177 1 68 117 c37 64
73 126 80 136 54 86 77 126 77 130 0 3 16 30 35 60 19 30 35 58 35 61 0 3 18
33 40 66 22 33 40 63 40 66 0 3 8 17 19 31 10 15 27 43 37 62 11 19 49 84 84
143 36 60 70 118 77 130 10 18 13 -10 15 -158 2 -146 6 -179 17 -177 36 7 123
-30 165 -71 139 -137 70 -358 -124 -396 l-60 -12 0 -95 0 -94 225 0 226 0 -3
588 -3 587 -23 40 c-34 57 -66 89 -125 121 -50 27 -59 29 -197 31 -110 2 -155
-1 -186 -13z"/>
<path d="M1320 4785 l0 -475 225 0 225 0 -2 473 -3 472 -222 3 -223 2 0 -475z"/>
<path d="M8165 4921 c-124 -56 -158 -210 -69 -310 52 -59 132 -83 203 -60 156
51 201 226 83 329 -69 61 -143 75 -217 41z"/>
</g>
</svg>
